# xmcd CD database file
#
# Track frame offsets:
#	150
#	20500
#	44008
#	66574
#	86005
#	109525
#	131751
#	158903
#	179407
#	200100
#	223503
#
# Disc length: 3183 seconds
#
# Revision: 1
# Processed by: cddbd v1.5.1PL0 Copyright (c) Steve Scherf et al.
# Submitted via: CDex 1.51
#
DISCID=a70c6d0b
DTITLE=Charles Matthews - Feels Right
DYEAR=2002
DGENRE=Jazz
TTITLE0=Charles Matthews - Feels Right - 01 - 33 Steps
TTITLE1=Charles Matthews - Feels Right - 02 - Sweetnighter
TTITLE2=Charles Matthews - Feels Right - 03 - Secret love
TTITLE3=Charles Matthews - Feels Right - 04 - Feels Right
TTITLE4=Charles Matthews - Feels Right - 05 - 3 Words
TTITLE5=Charles Matthews - Feels Right - 06 - Friday girl
TTITLE6=Charles Matthews - Feels Right - 07 - Oceanview
TTITLE7=Charles Matthews - Feels Right - 08 - 7th Wave
TTITLE8=Charles Matthews - Feels Right - 09 - Coast 2 Coast
TTITLE9=Charles Matthews - Feels Right - 10 - Dreamer
TTITLE10=Charles Matthews - Feels Right - 11 - Earthchild
EXTD=YEAR: 2002
EXTT0=
EXTT1=
EXTT2=
EXTT3=
EXTT4=
EXTT5=
EXTT6=
EXTT7=
EXTT8=
EXTT9=
EXTT10=
PLAYORDER=
